<?xml version="1.0" encoding="UTF-8"?>
<svg  viewBox="0 0 72 72" version="1.1" xmlns="http://www.w3.org/2000/svg" xmlns:xlink="http://www.w3.org/1999/xlink">
    <!-- Generator: Sketch 49.2 (51160) - http://www.bohemiancoding.com/sketch -->
    <title>Dropbox</title>
    <desc>Created with Sketch.</desc>
    <defs></defs>
    <g id="Page-1" stroke="none" stroke-width="1" fill="none" fill-rule="evenodd">
        <g id="Social-Icons---Circle" transform="translate(-264.000000, -379.000000)">
            <g id="Dropbox" transform="translate(264.000000, 379.000000)">
                <path d="M36,72 L36,72 C55.882251,72 72,55.882251 72,36 L72,36 C72,16.117749 55.882251,-3.65231026e-15 36,0 L36,0 C16.117749,3.65231026e-15 -2.4348735e-15,16.117749 0,36 L0,36 C2.4348735e-15,55.882251 16.117749,72 36,72 Z" id="Oval" fill="#0F82E2"></path>
                <path d="M35.9999714,40.0332375 L50.2362,31.172109 L59.9997,39.0536896 L45.8802,48.3458811 L35.9997,40.0334065 L26.1195,48.3457299 L12,39.0535384 L21.7635,31.1734697 L35.9999714,40.0332375 Z M26.1198,14 L36.0003,22.3124746 L21.7638,31.1722602 L12.0003,23.2921915 L26.1198,14 Z M36.02895,41.8216922 L45.93795,50.1099762 L50.17845,47.3189926 L50.17845,50.4471319 L36.02895,59 L21.87945,50.4471319 L21.87945,47.3189926 L26.11995,50.1099762 L36.02895,41.8216922 Z M60,23.2923427 L45.8805,14.0001512 L36,22.3126258 L50.2365,31.1724114 L60,23.2923427 Z" fill="#FFFFFF"></path>
            </g>
        </g>
    </g>
</svg>